<svg width="558" height="372" viewBox="0 0 558 372" fill="none" xmlns="http://www.w3.org/2000/svg">
<g clip-path="url(#clip0)">
<path d="M-45.544 256.942H59.256C69.865 256.942 80.039 252.727 87.54 245.226L208.44 124.326C215.942 116.824 226.116 112.61 236.725 112.61H269.5C280.109 112.613 290.285 108.401 297.789 100.9L357.299 41.3899C364.8 33.889 374.974 29.674 385.583 29.674H577.6V-17.8H-45.668L-45.544 256.942Z" fill="#F6F6F6"/>
<path d="M434.486 73.3611H127.515V259.85H434.486V73.3611Z" fill="white"/>
<path d="M189.841 108.558H382.276V227.494L189.841 228.306V108.558Z" fill="white"/>
<path d="M213.014 124.207C214.671 124.207 216.014 122.864 216.014 121.207C216.014 119.55 214.671 118.207 213.014 118.207C211.357 118.207 210.014 119.55 210.014 121.207C210.014 122.864 211.357 124.207 213.014 124.207Z" fill="#CBCBCB"/>
<path d="M213.014 134.656C214.671 134.656 216.014 133.313 216.014 131.656C216.014 129.999 214.671 128.656 213.014 128.656C211.357 128.656 210.014 129.999 210.014 131.656C210.014 133.313 211.357 134.656 213.014 134.656Z" fill="black"/>
<path d="M213.013 145.219C214.665 145.219 216.003 143.876 216.003 142.219C216.003 140.562 214.665 139.219 213.013 139.219C211.362 139.219 210.023 140.562 210.023 142.219C210.023 143.876 211.362 145.219 213.013 145.219Z" fill="#CBCBCB"/>
<path d="M213.014 155.782C214.671 155.782 216.014 154.439 216.014 152.782C216.014 151.125 214.671 149.782 213.014 149.782C211.357 149.782 210.014 151.125 210.014 152.782C210.014 154.439 211.357 155.782 213.014 155.782Z" fill="#CBCBCB"/>
<path d="M213.014 166.231C214.671 166.231 216.014 164.888 216.014 163.231C216.014 161.574 214.671 160.231 213.014 160.231C211.357 160.231 210.014 161.574 210.014 163.231C210.014 164.888 211.357 166.231 213.014 166.231Z" fill="#CBCBCB"/>
<path d="M223.691 182.176H209.568V183.324H223.691V182.176Z" fill="#CBCBCB"/>
<path d="M216.802 189.295H209.568V196.414H216.802V189.295Z" fill="#AFAFAF"/>
<path d="M216.802 199.743H209.568V206.862H216.802V199.743Z" fill="#AFAFAF"/>
<path d="M216.802 210.077H209.568V217.196H216.802V210.077Z" fill="#AFAFAF"/>
<path d="M336.9 175.746H249.641V155.538H336.9V175.746ZM250.327 175.057H336.211V156.227H250.33L250.327 175.057Z" fill="#E2E2E2"/>
<path d="M262.156 161.853H254.578V169.431H262.156V161.853Z" fill="#CBCBCB"/>
<path d="M262.156 185.161H254.578V192.739H262.156V185.161Z" fill="#CBCBCB"/>
<path d="M262.156 208.469H254.578V216.047H262.156V208.469Z" fill="#CBCBCB"/>
<path d="M327.416 140.038H249.87V141.531H327.416V140.038Z" fill="#E2E2E2"/>
<path d="M296.371 143.941H249.87V145.434H296.371V143.941Z" fill="#E2E2E2"/>
<path d="M314.743 165.872H266.519V167.365H314.743V165.872Z" fill="#E2E2E2"/>
<path d="M285.579 129.589H249.756V133.493H285.579V129.589Z" fill="#E2E2E2"/>
<path d="M289.597 169.89H266.519V171.383H289.597V169.89Z" fill="#E2E2E2"/>
<path d="M336.9 199.054H249.641V178.846H336.9V199.054ZM250.327 198.48H336.211V179.42H250.33L250.327 198.48Z" fill="#E2E2E2"/>
<path d="M317.039 189.18H266.519V190.673H317.039V189.18Z" fill="#E2E2E2"/>
<path d="M309.461 183.324H266.519V187.228H309.461V183.324Z" fill="#E2E2E2"/>
<path d="M284.66 193.084H266.519V194.577H284.66V193.084Z" fill="#E2E2E2"/>
<path d="M336.9 222.362H249.641V202.154H336.9V222.362ZM250.327 221.788H336.211V202.728H250.33L250.327 221.788Z" fill="#E2E2E2"/>
<path d="M308.428 212.488H266.519V213.981H308.428V212.488Z" fill="#E2E2E2"/>
<path d="M297.635 206.632H266.519V210.536H297.635V206.632Z" fill="#E2E2E2"/>
<path d="M282.594 216.507H266.519V218H282.594V216.507Z" fill="#E2E2E2"/>
<path d="M329.093 211.897L328.207 212.782L327.323 211.897" stroke="black" stroke-width="0.459" stroke-linecap="round" stroke-linejoin="round"/>
<path d="M329.093 188.524L328.207 189.409L327.323 188.524" stroke="black" stroke-width="0.459" stroke-linecap="round" stroke-linejoin="round"/>
<path d="M329.093 165.216L328.207 166.101L327.323 165.216" stroke="black" stroke-width="0.459" stroke-linecap="round" stroke-linejoin="round"/>
<path d="M383.007 107.615V228.527L191.207 229.388V107.615H383.007ZM189.633 106.815V231.386L384.599 231.327V106.753L189.633 106.815Z" fill="#AFAFAF"/>
<path d="M383.959 102.235H189.634V107.783H383.959V102.235Z" fill="#AFAFAF"/>
<path d="M196.573 106.086C197.168 106.086 197.65 105.604 197.65 105.009C197.65 104.414 197.168 103.932 196.573 103.932C195.978 103.932 195.496 104.414 195.496 105.009C195.496 105.604 195.978 106.086 196.573 106.086Z" fill="white"/>
<path d="M200.09 106.086C200.685 106.086 201.167 105.604 201.167 105.009C201.167 104.414 200.685 103.932 200.09 103.932C199.495 103.932 199.013 104.414 199.013 105.009C199.013 105.604 199.495 106.086 200.09 106.086Z" fill="white"/>
<path d="M203.605 106.086C204.2 106.086 204.682 105.604 204.682 105.009C204.682 104.414 204.2 103.932 203.605 103.932C203.011 103.932 202.528 104.414 202.528 105.009C202.528 105.604 203.011 106.086 203.605 106.086Z" fill="white"/>
<path d="M665.918 314.567H39.9941V374.404H665.918V314.567Z" fill="#EEEEEE"/>
<path d="M260.076 284.115C256.001 288.192 250.472 290.481 244.708 290.48C240.048 290.481 235.679 292.751 233 296.564H266.444V268.782C266.451 274.538 264.159 280.058 260.076 284.115Z" fill="#545454"/>
<path d="M323.901 292.1C321.859 291.038 319.592 290.483 317.29 290.482C305.3 290.483 295.575 280.772 295.557 268.782V296.564H329.001C327.678 294.694 325.93 293.164 323.901 292.1Z" fill="#545454"/>
<path d="M295.559 259.85H266.441V268.782V296.564H295.559V268.782V259.85Z" fill="#545454"/>
<path d="M429.486 78.3611V254.85H132.516V78.3611H429.486ZM434.486 73.3611H127.516V259.85H434.486V73.3611Z" fill="#757575"/>
<path d="M285.941 157.163V157.304C285.976 157.233 285.976 157.2 285.941 157.163Z" fill="black"/>
<path d="M595.918 296.567H19.9941V316.567H595.918V296.567Z" fill="#E2E2E2"/>
<path d="M119.872 97.3C119.872 95.201 118.171 93.5 116.072 93.5C113.973 93.5 112.272 95.201 112.272 97.3C112.272 99.399 113.973 101.1 116.072 101.1C118.156 101.066 119.838 99.384 119.872 97.3Z" fill="#757575"/>
<path d="M62.1046 159.857L44.7354 177.246L48.0026 180.51L65.3719 163.121L62.1046 159.857Z" fill="#AFAFAF"/>
<path d="M62.1387 159.839L107.351 114.5L110.614 117.767L65.4017 163.107L62.1387 159.839Z" fill="#E2E2E2"/>
<path d="M63.6262 290.452V163.945H59.8262V290.452H63.6262Z" fill="#E2E2E2"/>
<path d="M67.5728 160.966L76.9578 151.581L73.6808 148.3L64.2998 157.689L67.5728 160.966Z" fill="#AFAFAF"/>
<path d="M59.3799 169.158V183.831H64.0719V169.158H59.3799Z" fill="#AFAFAF"/>
<path d="M69.4353 162.9C69.4353 158.703 66.0324 155.3 61.8354 155.3C57.6384 155.3 54.2354 158.703 54.2354 162.9C54.2354 167.097 57.6384 170.5 61.8354 170.5C66.0224 170.511 69.4243 167.125 69.4353 162.938C69.4353 162.925 69.4353 162.913 69.4353 162.9Z" fill="#AFAFAF"/>
<path d="M64.8174 162.9C64.8174 161.255 63.4834 159.921 61.8384 159.921C60.1934 159.921 58.8594 161.255 58.8594 162.9C58.8594 164.545 60.1934 165.879 61.8384 165.879C63.4814 165.874 64.8124 164.543 64.8174 162.9Z" fill="white"/>
<path d="M109.37 119.05L125.383 103.111L122.106 99.834L106.093 115.847L109.37 119.05Z" fill="#AFAFAF"/>
<path d="M166.124 111.9C161.151 106.973 154.429 104.215 147.429 104.229C140.431 104.228 133.715 101.472 128.734 96.5571L123.073 90.9001L118.6 95.3651L114.131 99.8341L109.662 104.303L115.323 109.964C117.774 112.418 119.722 115.328 121.058 118.529C122.388 121.714 123.071 125.132 123.069 128.584C123.052 132.037 123.736 135.458 125.08 138.639C126.416 141.84 128.364 144.75 130.815 147.204L143.477 159.791L178.777 124.491L166.124 111.9Z" fill="#CBCBCB"/>
<path d="M61.8377 280.174C51.7857 280.176 43.0487 287.079 40.7217 296.858H82.9537C80.6267 287.078 71.8907 280.176 61.8377 280.174Z" fill="#AFAFAF"/>
<path d="M184.935 286.051L201.4 296.543C201.4 296.543 212.865 304.774 221.1 296.543C222.586 295.056 232.355 283.37 232.355 283.37L223.955 271.27C221.664 267.971 218.217 265.651 214.298 264.77C213.676 264.63 213.077 264.4 212.522 264.086L208.335 261.719C206.422 260.638 204.093 260.593 202.141 261.601L191.184 267.252C189.508 268.117 188.247 269.617 187.684 271.417C184.407 274.614 181.558 278.222 179.207 282.15C178.121 283.897 178.157 286.118 179.297 287.83L181.64 291.317C182.33 289.337 183.456 287.537 184.935 286.051Z" fill="#F7BFA5"/>
<path d="M197.029 280.918C188.01 280.918 180.699 287.918 180.699 296.543H213.358C213.358 287.913 206.047 280.918 197.029 280.918Z" fill="#757575"/>
<path d="M274.22 302.312L232.352 283.37L208.392 299.303L247.674 334.764L274.22 302.312Z" fill="#F19164"/>
<path d="M211.424 286.759C209.149 283.599 209.894 279.879 210.788 276.033C211.838 271.522 209.032 267.014 204.521 265.964C204.434 265.944 204.347 265.925 204.26 265.908C203.016 265.66 201.745 266.189 201.044 267.247L200.789 267.631C200.155 268.587 199.049 269.119 197.906 269.017L197.32 268.965C196.061 268.872 194.865 269.527 194.266 270.639C193.677 271.683 192.543 272.299 191.347 272.224L191.013 272.203C190.126 272.147 189.256 272.472 188.623 273.096L178.948 282.639C178.136 284.307 178.269 286.28 179.296 287.825L181.64 291.312C182.332 289.333 183.46 287.536 184.94 286.051L201.4 296.543C201.4 296.543 212.865 304.774 221.1 296.543C222.106 295.537 226.9 289.868 229.895 286.303L229.801 286.159C223.463 287.024 214.68 291.285 211.424 286.759Z" fill="#F19164"/>
<path d="M296.016 372C315.005 372 330.399 356.606 330.399 337.617C330.399 318.628 315.005 303.234 296.016 303.234C277.027 303.234 261.633 318.628 261.633 337.617C261.633 356.606 277.027 372 296.016 372Z" fill="#73C496"/>
<path d="M221.306 318.567L274.219 364.209L299.919 303.456L232.351 283.37C232.351 283.37 217.06 291.777 221.306 318.567Z" fill="#73C496"/>
<path d="M299.915 303.456L232.351 283.37C231.02 284.192 229.807 285.19 228.743 286.337L295.917 312.908L299.915 303.456Z" fill="#AEDDC2"/>
<path d="M382.95 240.5L313.476 226.063L265.969 318.341L299.157 355.869C301.427 354.637 303.385 352.9 304.879 350.793L382.95 240.5Z" fill="#73C496"/>
<path d="M370.294 92.2241L365.469 101.556C363.023 106.289 360.496 111.287 360.369 116.73C360.231 122.436 362.654 127.214 360.669 132.982C359.516 136.333 359.354 139.946 360.201 143.387L365.152 163.496C365.485 164.846 365.588 166.242 365.458 167.626L364.823 174.383C364.683 175.878 365.454 177.311 366.779 178.019C369.96 179.727 376.128 182.572 381.913 182.572H410.513V95.6701L370.294 92.2241Z" fill="#FABDA5"/>
<path d="M396.837 170.312C394.905 170.931 392.942 171.45 390.957 171.867C389.705 172.156 387.037 173.336 385.838 172.499C384.712 171.713 384.659 168.277 384.416 166.984C384.077 165.172 383.708 163.346 383.342 161.518C383.133 160.483 382.124 159.813 381.089 160.023C380.465 160.149 379.944 160.578 379.701 161.166L379.67 161.238C377.026 167.206 371.559 172.916 364.861 173.944L364.82 174.383C364.68 175.878 365.45 177.312 366.775 178.019C369.956 179.727 376.124 182.572 381.909 182.572H384.858C385.635 182.046 386.402 181.525 387.158 181.017C390.341 178.872 395.968 174.188 396.837 170.312Z" fill="#FA9269"/>
<path d="M436.195 132.531H380.792V195.976H436.195V132.531Z" fill="#FABDA5"/>
<path d="M436.196 132.531H391.915V195.976H436.196V132.531Z" fill="#FA9269"/>
<path d="M380.853 112.261C383.926 112.261 386.417 114.752 386.417 117.825V132.125C386.417 138.271 381.435 143.253 375.289 143.253V117.825C375.289 114.752 377.78 112.261 380.853 112.261Z" fill="#FA9269"/>
<path d="M364.507 70.4291C363.355 76.9411 364.971 84.808 365.122 90.754C365.272 96.654 364.522 102.831 366.077 108.592C366.299 109.439 366.871 110.151 367.65 110.55C368.583 111.021 369.206 111.941 369.298 112.982L370.516 126.722L377.441 123.148L386.417 126.722C390.345 131.316 393.65 136.408 396.248 141.866C403.032 155.947 419.02 163.42 433.993 158.936C434.504 158.783 435.015 158.619 435.525 158.445C438.078 153.214 440.795 148.057 443.614 142.965C447.959 135.117 454.474 128.393 457.333 119.756C460.205 111.08 461.881 99.495 458.659 90.756C455.559 82.339 449.269 74.843 442.398 69.241C436.088 64.175 428.724 60.5871 420.845 58.7411C417.904 57.9881 414.892 57.5461 411.859 57.4221C404.93 57.2521 398.902 60.26 391.927 58.538C388.612 57.72 385.419 56.457 382.095 55.677C380.026 55.084 377.844 54.998 375.734 55.427C369.963 56.911 365.473 64.9661 364.507 70.4291Z" fill="#333333"/>
<path d="M380.853 112.261C377.78 112.261 375.289 114.752 375.289 117.825V124.259L377.441 123.148L386.417 126.722V117.822C386.415 114.75 383.925 112.261 380.853 112.261Z" fill="black"/>
<path d="M377.519 112.261C380.808 112.261 383.474 114.927 383.474 118.216V131.345C383.474 137.922 378.142 143.254 371.565 143.254V118.216C371.565 114.928 374.231 112.262 377.519 112.261Z" fill="#FABDA5"/>
<path d="M565.789 367.018L559.558 351.678H493.63L498.687 360.105L418.832 375.938C409.456 377.798 403.363 386.906 405.223 396.282C406.874 404.604 414.314 410.503 422.794 410.211L544.678 406.006C547.666 405.892 550.611 405.264 553.385 404.148C566.415 398.855 572.687 384 567.394 370.97L565.789 367.018Z" fill="#3AA76D"/>
<path d="M514.07 239.7C513.326 237.9 512.455 236.155 511.463 234.478C500.995 216.416 477.867 210.259 459.805 220.727C441.743 231.195 435.586 254.323 446.054 272.385C446.246 272.717 446.443 273.045 446.646 273.371L493.631 351.676H559.558L514.07 239.7Z" fill="#3AA76D"/>
<path d="M413.801 404.963L498.241 403.781C518.131 403.501 534.027 387.15 533.748 367.261C533.672 361.849 532.377 356.524 529.959 351.681L480.359 252.353L413.801 404.963Z" fill="#3AA76D"/>
<path d="M510.348 313.9C510.931 316.964 512.556 319.731 514.948 321.733C517.709 323.869 521.519 323.138 522.548 326.525C523.468 329.544 520.809 332.654 523.705 335.383C526.567 338.083 530.169 335.92 529.862 340.863C529.747 342.726 528.442 344.025 528.713 346.173C528.969 348.204 530.935 349.092 529.759 351.263C523.568 351.215 516.909 349.669 510.693 349.035C506.901 336.169 513.343 324.222 510.348 313.9Z" fill="#3AA76D"/>
<path d="M439.887 183.824C419.205 178.965 397.679 178.965 376.997 183.824L349.673 211.148H467.211L439.887 183.824Z" fill="#3AA76D"/>
<path d="M361.673 208.148L388.122 181.7C384.389 182.259 380.68 182.968 376.997 183.825L349.673 211.149H467.21L464.21 208.149L361.673 208.148Z" fill="#73C496"/>
<path d="M493.152 450.01L322.161 437.2C317.549 436.854 314.09 432.834 314.437 428.221C314.503 427.345 314.706 426.485 315.039 425.672L322.75 406.867C328.54 392.745 330.361 377.309 328.015 362.228L310.666 250.689C310.666 233.658 320.982 218.324 336.758 211.906L361.109 202C391.456 189.654 425.426 189.654 455.773 202L480.124 211.906C495.9 218.324 506.216 233.658 506.216 250.689L495.041 399.07C494.128 411.189 495.864 423.361 500.128 434.741L501.619 438.721C503.242 443.052 501.047 447.878 496.716 449.501C495.579 449.927 494.363 450.101 493.152 450.01Z" fill="#73C496"/>
<path d="M500.128 434.741C495.864 423.361 494.128 411.189 495.04 399.07L506.216 250.689C506.216 233.658 495.9 218.324 480.124 211.906L455.773 202C435.793 193.878 414.057 191.039 392.661 193.756C392.399 193.969 392.151 194.194 391.885 194.403C392.151 194.194 392.399 193.969 392.661 193.756C392.367 193.793 392.072 193.82 391.778 193.856C380.905 198.956 371.771 209.133 368.885 221.399C366.885 235.399 371.885 248.399 375.885 261.399C377.885 268.399 378.885 277.399 374.885 282.399C359.885 305.399 338.885 320.399 332.885 346.399C331.477 353.441 330.128 360.543 328.669 367.594C329.873 380.968 327.843 394.435 322.75 406.859L315.039 425.664C313.285 429.944 315.332 434.835 319.612 436.59C320.425 436.923 321.285 437.126 322.161 437.192L493.152 450.01C497.764 450.355 501.783 446.896 502.129 442.283C502.22 441.073 502.046 439.857 501.62 438.721L500.128 434.741Z" fill="#3AA76D"/>
<path d="M462.79 204.854C462.79 204.854 492.7 214.135 506.216 227.654L462.79 225.237V204.854Z" fill="#3AA76D"/>
<path d="M357.252 203.569C357.252 203.569 323.665 209.142 313.476 226.059L351.038 243.767L357.252 203.569Z" fill="#73C496"/>
<path d="M511.83 267.662L511.153 264.243C509.299 254.877 501.082 248.127 491.534 248.127H331.301C321.753 248.127 313.536 254.877 311.682 264.243L311.001 267.662C302.072 312.765 300.242 358.987 305.576 404.655L313.029 468.461H509.801L517.254 404.655C522.589 358.987 520.759 312.766 511.83 267.662Z" fill="white"/>
<path d="M511.83 267.662L511.153 264.243C509.299 254.877 501.082 248.127 491.534 248.127H331.301C321.753 248.127 313.536 254.877 311.682 264.243L311.001 267.662C302.072 312.765 300.242 358.987 305.576 404.655L313.029 468.461H509.801L517.254 404.655C522.589 358.987 520.759 312.766 511.83 267.662Z" fill="white"/>
<path d="M464.209 208.148L391.778 202.3V189.758H445.819L464.209 208.148Z" fill="#3AA76D"/>
</g>
<defs>
<clipPath id="clip0">
<rect width="558" height="372" fill="white"/>
</clipPath>
</defs>
</svg>
